<svg xmlns="http://www.w3.org/2000/svg" width="24" height="24" viewBox="0 0 24 24" fill="none" stroke="currentColor" stroke-width="2" stroke-linecap="round" stroke-linejoin="round">
  <path d="M12 4.5a2.5 2.5 0 0 0-4.96-.46 2.5 2.5 0 0 0-1.98 3 2.5 2.5 0 0 0 1.32 4.24 2.5 2.5 0 0 0 1.98 3A2.5 2.5 0 0 0 12 19.5a2.5 2.5 0 0 0 3.96.24 2.5 2.5 0 0 0 2.08-2.76 2.5 2.5 0 0 0 1.38-4.24 2.5 2.5 0 0 0-1.38-4.24 2.5 2.5 0 0 0-2.08-2.76A2.5 2.5 0 0 0 12 4.5z"></path>
  <circle cx="12" cy="12" r="2"></circle>
</svg>